<?xml version="1.0" encoding="utf-8" ?>
<svg xmlns="http://www.w3.org/2000/svg" xmlns:xlink="http://www.w3.org/1999/xlink" width="600" height="600">
	<clipPath id="cl_12b">
		<rect width="600" height="600"/>
	</clipPath>
	<g clip-path="url(#cl_12b)">
		<path fill="none" stroke="white" stroke-width="55" stroke-miterlimit="10" transform="matrix(0.277064 -0.637386 -0.637386 -0.277064 300 300)" d="M0 307.135C-169.626 307.135 -307.135 169.626 -307.135 0C-307.135 -169.626 -169.626 -307.135 0 -307.135C67.474 -307.135 129.866 -285.377 180.543 -248.495"/>
		<path fill="none" stroke="white" stroke-width="55" stroke-miterlimit="10" transform="matrix(-0.694945 0.00873343 0.00873343 0.694945 300 300)" d="M-164.595 -259.354C-117.02 -289.61 -60.5567 -307.135 0 -307.135C67.474 -307.135 129.866 -285.377 180.543 -248.495"/>
		<path fill="none" stroke="white" stroke-width="65" stroke-miterlimit="10" transform="matrix(-0.480776 -0.283267 -0.283267 0.480776 300 300)" d="M0 307.135C-169.626 307.135 -307.135 169.626 -307.135 0C-307.135 -102.152 -257.265 -192.657 -180.543 -248.495"/>
		<path fill="none" stroke="white" stroke-width="15" stroke-miterlimit="10" transform="matrix(0.608866 -0.0371756 -0.0371756 -0.608866 301 300)" d="M-277.964 130.815C-296.675 91.1276 -307.135 46.7854 -307.135 0C-307.135 -39.942 -299.511 -78.1032 -285.638 -113.108"/>
		<path fill="none" stroke="white" stroke-width="40.700001" stroke-miterlimit="10" transform="matrix(0.181786 -0.418198 -0.418198 -0.181786 300 300)" d="M0 307.135C-169.626 307.135 -307.135 169.626 -307.135 0C-307.135 -169.626 -169.626 -307.135 0 -307.135C156.583 -307.135 285.799 -189.96 304.744 -38.5113"/>
		<path fill="none" stroke="white" stroke-width="45.599998" stroke-miterlimit="10" transform="matrix(0.15388 -0.354001 -0.354001 -0.15388 300 300)" d="M304.744 -38.5113C306.322 -25.8961 307.135 -13.043 307.135 0C307.135 169.626 169.626 307.135 0 307.135"/>
		<path fill="none" stroke="white" stroke-width="26.4" stroke-miterlimit="10" transform="matrix(0.121589 0.279716 0.279716 -0.121589 300 300)" d="M0 307.135C-169.626 307.135 -307.135 169.626 -307.135 0C-307.135 -156.583 -189.96 -285.799 -38.5112 -304.744"/>
		<path fill="none" stroke="white" stroke-width="85" stroke-miterlimit="10" transform="matrix(0.239346 -0.0357447 -0.0357447 -0.239346 300 300)" d="M0 307.135C-169.626 307.135 -307.135 169.626 -307.135 0C-307.135 -102.152 -257.265 -192.657 -180.543 -248.495"/>
		<path fill="none" stroke="white" stroke-width="45.599998" stroke-miterlimit="10" transform="matrix(0.0432063 0.179884 0.179884 -0.0432063 300 300)" d="M0 307.135C-169.626 307.135 -307.135 169.626 -307.135 0C-307.135 -169.626 -169.626 -307.135 0 -307.135C67.474 -307.135 129.866 -285.377 180.543 -248.495"/>
	</g>
</svg>
