<?xml version="1.0" encoding="utf-8" ?>
<svg xmlns="http://www.w3.org/2000/svg" xmlns:xlink="http://www.w3.org/1999/xlink" width="600" height="600">
	<clipPath id="cl_145">
		<rect width="600" height="600"/>
	</clipPath>
	<g clip-path="url(#cl_145)">
		<path fill="none" stroke="white" stroke-width="55" stroke-miterlimit="10" transform="matrix(-0.16927 -0.674072 -0.674072 0.16927 300 300)" d="M0 307.135C-169.626 307.135 -307.135 169.626 -307.135 0C-307.135 -169.626 -169.626 -307.135 0 -307.135C67.474 -307.135 129.866 -285.377 180.543 -248.495"/>
		<path fill="none" stroke="white" stroke-width="55" stroke-miterlimit="10" transform="matrix(-0.569032 0.399033 0.399033 0.569032 300 300)" d="M-164.595 -259.354C-117.02 -289.61 -60.5567 -307.135 0 -307.135C67.474 -307.135 129.866 -285.377 180.543 -248.495"/>
		<path fill="none" stroke="white" stroke-width="65" stroke-miterlimit="10" transform="matrix(-0.208262 -0.517973 -0.517973 0.208262 300 300)" d="M0 307.135C-169.626 307.135 -307.135 169.626 -307.135 0C-307.135 -102.152 -257.265 -192.657 -180.543 -248.495"/>
		<path fill="none" stroke="white" stroke-width="15" stroke-miterlimit="10" transform="matrix(0.505138 0.341958 0.341958 -0.505138 301 300)" d="M-277.964 130.815C-296.675 91.1276 -307.135 46.7854 -307.135 0C-307.135 -39.942 -299.511 -78.1032 -285.638 -113.108"/>
		<path fill="none" stroke="white" stroke-width="40.700001" stroke-miterlimit="10" transform="matrix(-0.111061 -0.442269 -0.442269 0.111061 300 300)" d="M0 307.135C-169.626 307.135 -307.135 169.626 -307.135 0C-307.135 -169.626 -169.626 -307.135 0 -307.135C156.583 -307.135 285.799 -189.96 304.744 -38.5113"/>
		<path fill="none" stroke="white" stroke-width="45.599998" stroke-miterlimit="10" transform="matrix(-0.0940117 -0.374377 -0.374377 0.0940117 300 300)" d="M304.744 -38.5113C306.322 -25.8961 307.135 -13.043 307.135 0C307.135 169.626 169.626 307.135 0 307.135"/>
		<path fill="none" stroke="white" stroke-width="26.4" stroke-miterlimit="10" transform="matrix(-0.0742839 0.295816 0.295816 0.0742839 300 300)" d="M0 307.135C-169.626 307.135 -307.135 169.626 -307.135 0C-307.135 -156.583 -189.96 -285.799 -38.5112 -304.744"/>
		<path fill="none" stroke="white" stroke-width="85" stroke-miterlimit="10" transform="matrix(0.21146 0.11768 0.11768 -0.21146 300 300)" d="M0 307.135C-169.626 307.135 -307.135 169.626 -307.135 0C-307.135 -102.152 -257.265 -192.657 -180.543 -248.495"/>
		<path fill="none" stroke="white" stroke-width="45.599998" stroke-miterlimit="10" transform="matrix(0.143968 0.116182 0.116182 -0.143968 300 300)" d="M0 307.135C-169.626 307.135 -307.135 169.626 -307.135 0C-307.135 -169.626 -169.626 -307.135 0 -307.135C67.474 -307.135 129.866 -285.377 180.543 -248.495"/>
	</g>
</svg>
