<?xml version="1.0" encoding="utf-8" ?>
<svg xmlns="http://www.w3.org/2000/svg" xmlns:xlink="http://www.w3.org/1999/xlink" width="600" height="600">
	<clipPath id="cl_160">
		<rect width="600" height="600"/>
	</clipPath>
	<g clip-path="url(#cl_160)">
		<path fill="none" stroke="white" stroke-width="55" stroke-miterlimit="10" transform="matrix(-0.556018 -0.416977 -0.416977 0.556018 300 300)" d="M0 307.135C-169.626 307.135 -307.135 169.626 -307.135 0C-307.135 -169.626 -169.626 -307.135 0 -307.135C67.474 -307.135 129.866 -285.377 180.543 -248.495"/>
		<path fill="none" stroke="white" stroke-width="55" stroke-miterlimit="10" transform="matrix(-0.229937 0.655861 0.655861 0.229937 300 300)" d="M-164.595 -259.354C-117.02 -289.61 -60.5567 -307.135 0 -307.135C67.474 -307.135 129.866 -285.377 180.543 -248.495"/>
		<path fill="none" stroke="white" stroke-width="65" stroke-miterlimit="10" transform="matrix(0.164535 -0.533752 -0.533752 -0.164535 300 300)" d="M0 307.135C-169.626 307.135 -307.135 169.626 -307.135 0C-307.135 -102.152 -257.265 -192.657 -180.543 -248.495"/>
		<path fill="none" stroke="white" stroke-width="15" stroke-miterlimit="10" transform="matrix(0.176997 0.583757 0.583757 -0.176997 301 300)" d="M-277.964 130.815C-296.675 91.1276 -307.135 46.7854 -307.135 0C-307.135 -39.942 -299.511 -78.1032 -285.638 -113.108"/>
		<path fill="none" stroke="white" stroke-width="40.700001" stroke-miterlimit="10" transform="matrix(-0.364812 -0.273585 -0.273585 0.364812 300 300)" d="M0 307.135C-169.626 307.135 -307.135 169.626 -307.135 0C-307.135 -169.626 -169.626 -307.135 0 -307.135C156.583 -307.135 285.799 -189.96 304.744 -38.5113"/>
		<path fill="none" stroke="white" stroke-width="45.599998" stroke-miterlimit="10" transform="matrix(-0.30881 -0.231587 -0.231587 0.30881 300 300)" d="M304.744 -38.5113C306.322 -25.8961 307.135 -13.043 307.135 0C307.135 169.626 169.626 307.135 0 307.135"/>
		<path fill="none" stroke="white" stroke-width="26.4" stroke-miterlimit="10" transform="matrix(-0.244008 0.18299 0.18299 0.244008 300 300)" d="M0 307.135C-169.626 307.135 -307.135 169.626 -307.135 0C-307.135 -156.583 -189.96 -285.799 -38.5112 -304.744"/>
		<path fill="none" stroke="white" stroke-width="85" stroke-miterlimit="10" transform="matrix(0.0901354 0.224588 0.224588 -0.0901354 300 300)" d="M0 307.135C-169.626 307.135 -307.135 169.626 -307.135 0C-307.135 -102.152 -257.265 -192.657 -180.543 -248.495"/>
		<path fill="none" stroke="white" stroke-width="45.599998" stroke-miterlimit="10" transform="matrix(0.185 -0.000427962 -0.000427962 -0.185 300 300)" d="M0 307.135C-169.626 307.135 -307.135 169.626 -307.135 0C-307.135 -169.626 -169.626 -307.135 0 -307.135C67.474 -307.135 129.866 -285.377 180.543 -248.495"/>
	</g>
</svg>
