<?xml version="1.0" encoding="utf-8" ?>
<svg xmlns="http://www.w3.org/2000/svg" xmlns:xlink="http://www.w3.org/1999/xlink" width="600" height="600">
	<clipPath id="cl_1b1">
		<rect width="600" height="600"/>
	</clipPath>
	<g clip-path="url(#cl_1b1)">
		<path fill="none" stroke="white" stroke-width="55" stroke-miterlimit="10" transform="matrix(-0.117806 0.684943 0.684943 0.117806 300 300)" d="M0 307.135C-169.626 307.135 -307.135 169.626 -307.135 0C-307.135 -169.626 -169.626 -307.135 0 -307.135C67.474 -307.135 129.866 -285.377 180.543 -248.495"/>
		<path fill="none" stroke="white" stroke-width="55" stroke-miterlimit="10" transform="matrix(0.692452 -0.0594614 -0.0594614 -0.692452 300 300)" d="M-164.595 -259.354C-117.02 -289.61 -60.5567 -307.135 0 -307.135C67.474 -307.135 129.866 -285.377 180.543 -248.495"/>
		<path fill="none" stroke="white" stroke-width="65" stroke-miterlimit="10" transform="matrix(0.400708 0.39023 0.39023 -0.400708 300 300)" d="M0 307.135C-169.626 307.135 -307.135 169.626 -307.135 0C-307.135 -102.152 -257.265 -192.657 -180.543 -248.495"/>
		<path fill="none" stroke="white" stroke-width="15" stroke-miterlimit="10" transform="matrix(-0.600282 -0.108451 -0.108451 0.600282 301 300)" d="M-277.964 130.815C-296.675 91.1276 -307.135 46.7854 -307.135 0C-307.135 -39.942 -299.511 -78.1032 -285.638 -113.108"/>
		<path fill="none" stroke="white" stroke-width="40.700001" stroke-miterlimit="10" transform="matrix(-0.0772942 0.449401 0.449401 0.0772942 300 300)" d="M0 307.135C-169.626 307.135 -307.135 169.626 -307.135 0C-307.135 -169.626 -169.626 -307.135 0 -307.135C156.583 -307.135 285.799 -189.96 304.744 -38.5113"/>
		<path fill="none" stroke="white" stroke-width="45.599998" stroke-miterlimit="10" transform="matrix(-0.0654289 0.380414 0.380414 0.0654289 300 300)" d="M304.744 -38.5113C306.322 -25.8961 307.135 -13.043 307.135 0C307.135 169.626 169.626 307.135 0 307.135"/>
		<path fill="none" stroke="white" stroke-width="26.4" stroke-miterlimit="10" transform="matrix(-0.051699 -0.300586 -0.300586 0.051699 300 300)" d="M0 307.135C-169.626 307.135 -307.135 169.626 -307.135 0C-307.135 -156.583 -189.96 -285.799 -38.5112 -304.744"/>
		<path fill="none" stroke="white" stroke-width="85" stroke-miterlimit="10" transform="matrix(-0.240988 -0.0221054 -0.0221054 0.240988 300 300)" d="M0 307.135C-169.626 307.135 -307.135 169.626 -307.135 0C-307.135 -102.152 -257.265 -192.657 -180.543 -248.495"/>
		<path fill="none" stroke="white" stroke-width="45.599998" stroke-miterlimit="10" transform="matrix(-0.0846807 -0.164482 -0.164482 0.0846807 300 300)" d="M0 307.135C-169.626 307.135 -307.135 169.626 -307.135 0C-307.135 -169.626 -169.626 -307.135 0 -307.135C67.474 -307.135 129.866 -285.377 180.543 -248.495"/>
	</g>
</svg>
